<svg width="24" height="24" viewBox="0 0 24 24" fill="none" xmlns="http://www.w3.org/2000/svg">
<path d="M17.833 13L16.083 14.75L14.333 13" stroke="white" stroke-linecap="round"/>
<path d="M6.16699 13L7.91699 11.25L9.66699 13" stroke="white" stroke-linecap="round"/>
<path d="M16.0837 14.7501L16.0929 13.0295C16.0929 10.7581 14.2516 8.91675 11.9802 8.91675C11.1225 8.91675 10.3261 9.17931 9.66699 9.62844" stroke="white" stroke-linecap="round"/>
<path d="M14.3429 16.4095C13.6838 16.8586 12.8874 17.1211 12.0297 17.1211C9.75833 17.1211 7.91699 15.2798 7.91699 13.0084V11.25V11.25" stroke="white" stroke-linecap="round"/>
<path fill-rule="evenodd" clip-rule="evenodd" d="M7.2 5L8.08752 3.8906C8.53264 3.3342 9.28199 2 10.0844 2H13.9156C14.718 2 15.4674 3.3342 15.9125 3.8906L16.8 5H22C22.5523 5 23 5.44772 23 6V20C23 20.5523 22.5523 21 22 21H2C1.44772 21 1 20.5523 1 20V6C1 5.44772 1.44772 5 2 5H7.2Z" stroke="white" stroke-width="2" stroke-linecap="round" stroke-linejoin="round" stroke-dasharray="12 4"/>
</svg>
