<svg width="44" height="44" viewBox="0 0 44 44" fill="none" xmlns="http://www.w3.org/2000/svg">
<rect width="44" height="44" rx="22" fill="#2D014D" fill-opacity="0.8"/>
<path fill-rule="evenodd" clip-rule="evenodd" d="M22 26C24.2091 26 26 24.2091 26 22C26 19.7909 24.2091 18 22 18C19.7909 18 18 19.7909 18 22C18 24.2091 19.7909 26 22 26Z" stroke="white" stroke-width="2" stroke-linecap="round"/>
<path d="M22 15V13" stroke="white" stroke-linecap="round" stroke-linejoin="round"/>
<path d="M22 31V29" stroke="white" stroke-linecap="round" stroke-linejoin="round"/>
<path fill-rule="evenodd" clip-rule="evenodd" d="M15 22H12H15Z" stroke="white" stroke-linecap="round" stroke-linejoin="round"/>
<path fill-rule="evenodd" clip-rule="evenodd" d="M32 22H29H32Z" stroke="white" stroke-linecap="round" stroke-linejoin="round"/>
<path fill-rule="evenodd" clip-rule="evenodd" d="M26.9502 17.0503L29.0715 14.929L26.9502 17.0503Z" stroke="white" stroke-linecap="round" stroke-linejoin="round"/>
<path fill-rule="evenodd" clip-rule="evenodd" d="M14.9287 29.071L17.05 26.9497L14.9287 29.071Z" stroke="white" stroke-linecap="round" stroke-linejoin="round"/>
<path fill-rule="evenodd" clip-rule="evenodd" d="M26.9502 26.9497L29.0715 29.071L26.9502 26.9497Z" stroke="white" stroke-linecap="round" stroke-linejoin="round"/>
<path d="M14.9287 14.929L17.05 17.0503" stroke="white" stroke-linecap="round" stroke-linejoin="round"/>
</svg>
